<?xml version="1.0" standalone="no"?>
<!DOCTYPE svg PUBLIC "-//W3C//DTD SVG 20010904//EN"
 "http://www.w3.org/TR/2001/REC-SVG-20010904/DTD/svg10.dtd">
<svg version="1.0" xmlns="http://www.w3.org/2000/svg"
 width="256.000000pt" height="256.000000pt" viewBox="0 0 256.000000 256.000000"
 preserveAspectRatio="xMidYMid meet">
<metadata>
Created by potrace 1.11, written by Peter Selinger 2001-2013
</metadata>
<g transform="translate(0.000000,256.000000) scale(0.100000,-0.100000)"
fill="#000000" stroke="none">
<path d="M400 2090 c-161 -4 -201 -8 -227 -23 -51 -27 -101 -76 -130 -125 -35
-60 -38 -124 -37 -742 1 -377 4 -505 14 -535 27 -83 73 -135 160 -181 33 -18
81 -19 1085 -21 1173 -3 1098 -7 1187 68 61 51 89 109 97 199 3 41 6 314 5
605 -1 509 -2 532 -21 576 -39 88 -124 159 -208 175 -46 8 -1629 12 -1925 4z
m426 -454 c-3 -20 -11 -57 -17 -83 -12 -54 -16 -75 -25 -118 l-5 -31 128 2
c70 1 131 2 134 3 4 1 9 16 12 34 6 32 33 162 42 205 5 21 9 22 126 22 l122 0
-7 -37 c-3 -21 -8 -47 -10 -58 -20 -90 -112 -526 -132 -625 l-16 -75 -115 2
c-63 1 -118 4 -121 7 -2 3 5 52 16 108 12 57 24 121 28 143 3 22 7 45 7 50 1
6 -47 10 -128 10 l-130 0 -27 -120 c-16 -66 -31 -136 -34 -155 -3 -19 -7 -36
-8 -37 -3 -3 -116 -5 -190 -4 l-58 1 7 28 c11 43 16 65 20 92 2 14 10 55 19
93 9 37 18 82 21 100 4 17 24 113 45 212 21 99 42 195 45 214 3 19 8 38 10 42
3 4 59 8 126 8 l120 2 -5 -35z m1150 16 c132 -41 214 -155 217 -302 3 -152
-41 -264 -137 -353 -75 -70 -166 -106 -290 -113 -87 -5 -416 -7 -421 -2 -3 3
9 81 19 123 6 28 76 355 80 381 2 11 17 80 32 153 l28 133 220 -6 c122 -2 235
-9 252 -14z"/>
<path d="M1711 1461 c-9 -6 -38 -129 -65 -276 -2 -11 -7 -38 -11 -59 l-8 -39
89 5 c123 7 166 32 213 124 50 96 20 206 -64 234 -38 13 -139 20 -154 11z"/>
</g>
</svg>
